{"title":"[MARATHI] Rajmata Jijau 2011 DTHRip XviD (DDR)","uid":8757821,"size":1553494966,"categoryP":"video","categoryS":"movies","magnet":"?xt=urn:btih:a9690c9401201dc2359dc519ae6d7f125cc66b42&amp;dn=%5BMARATHI%5D+Rajmata+Jijau+2011+DTHRip+XviD+%28DDR%29&amp;tr=udp%3A%2F%2Ftracker.openbittorrent.com%3A80&amp;tr=udp%3A%2F%2Fopen.demonii.com%3A1337&amp;tr=udp%3A%2F%2Ftracker.coppersurfer.tk%3A6969&amp;tr=udp%3A%2F%2Fexodus.desync.com%3A6969","seeders":0,"leechers":2,"uploader":"SJonam","files":1,"time":1375181577,"description":" &lt;a href=&quot;http://desibbrg.org/images/51064081950862421424.png&quot; rel=&quot;nofollow&quot; target=&quot;_NEW&quot;&gt;http://desibbrg.org/images/51064081950862421424.png&lt;/a&gt; &lt;a href=&quot;\nhttp://desibbrg.org/images/26545108980708577363.png&quot; rel=&quot;nofollow&quot; target=&quot;_NEW&quot;&gt;\nhttp://desibbrg.org/images/26545108980708577363.png&lt;/a&gt; &lt;a href=&quot;\nhttp://desibbrg.org/images/04877035067964673809.png&quot; rel=&quot;nofollow&quot; target=&quot;_NEW&quot;&gt;\nhttp://desibbrg.org/images/04877035067964673809.png&lt;/a&gt; &lt;a href=&quot;\nhttp://desibbrg.org/images/79632818723526433866.png&quot; rel=&quot;nofollow&quot; target=&quot;_NEW&quot;&gt;\nhttp://desibbrg.org/images/79632818723526433866.png&lt;/a&gt; &lt;a href=&quot;\nhttp://desibbrg.org/images/78604213908449543658.png&quot; rel=&quot;nofollow&quot; target=&quot;_NEW&quot;&gt;\nhttp://desibbrg.org/images/78604213908449543658.png&lt;/a&gt;\n\nMedia Info - \nVideo\nID : 0\nFormat : MPEG-4 Visual\nFormat profile : Advanced Simple@L5\nFormat settings, BVOP : 1\nFormat settings, QPel : No\nFormat settings, GMC : No warppoints\nFormat settings, Matrix : Custom\nCodec ID : XVID\nCodec ID/Hint : XviD\nDuration : 2h 25mn\nBit rate : 1 324 Kbps\nWidth : 688 pixels\nHeight : 288 pixels\nDisplay aspect ratio : 2.40:1\nFrame rate : 25.000 fps\nColor space : YUV\nChroma subsampling : 4:2:0\nBit depth : 8 bits\nScan type : Progressive\nCompression mode : Lossy\nBits/(Pixel*Frame) : 0.267\nStream size : 1.34 GiB (93%)\nWriting library : XviD 1.2.1 (UTC 2008-12-04)\n\nAudio\nID : 1\nFormat : MPEG Audio\nFormat version : Version 1\nFormat profile : Layer 3\nMode : Joint stereo\nMode extension : MS Stereo\nCodec ID : 55\nCodec ID/Hint : MP3\nDuration : 2h 25mn\nBit rate mode : Variable\nBit rate : 90.1 Kbps\nNominal bit rate : 96.0 Kbps\nChannel(s) : 2 channels\nSampling rate : 32.0 KHz\nCompression mode : Lossy\nStream size : 93.8 MiB (6%)\nAlignment : Aligned on interleaves\nInterleave, duration : 36 ms (0.90 video frame)\nInterleave, preload duration : 210 ms\nTitle : movie Tc0 L2 2ch 48 384 DELAY 0ms\nWriting library : LAME3.99r\nEncoding settings : -m j -V 4 -q 2 -lowpass 15.1 --abr 96\n\nRipper : IndianHacker\n\nSeeding 24x7... Exterme Seeding...\n\n\nEnjoy!\n","torrent":{"xt":"urn:btih:a9690c9401201dc2359dc519ae6d7f125cc66b42","amp;dn":"%5BMARATHI%5D+Rajmata+Jijau+2011+DTHRip+XviD+%28DDR%29","amp;tr":["udp%3A%2F%2Ftracker.openbittorrent.com%3A80","udp%3A%2F%2Fopen.demonii.com%3A1337","udp%3A%2F%2Ftracker.coppersurfer.tk%3A6969","udp%3A%2F%2Fexodus.desync.com%3A6969"],"infoHash":"a9690c9401201dc2359dc519ae6d7f125cc66b42","infoHashBuffer":{"type":"Buffer","data":[169,105,12,148,1,32,29,194,53,157,197,25,174,109,127,18,92,198,107,66]},"announce":[],"urlList":[]}}